<?xml version="1.0" encoding="iso-8859-1"?>
<!-- Generator: Adobe Illustrator 19.0.0, SVG Export Plug-In . SVG Version: 6.00 Build 0)  -->
<svg version="1.1" id="Layer_1" xmlns="http://www.w3.org/2000/svg" xmlns:xlink="http://www.w3.org/1999/xlink" x="0px" y="0px"
	 viewBox="0 0 512 512" style="enable-background:new 0 0 512 512;" xml:space="preserve">
<g>
	<g>
		<path style="fill:#35495E;" d="M229.517,370.759c0-33.421,11.67-64.088,31.082-88.276H26.483C11.855,282.483,0,294.338,0,308.966
			v88.276c0,14.627,11.855,26.483,26.483,26.483h213.398C233.251,407.358,229.517,389.5,229.517,370.759"/>
		<path style="fill:#35495E;" d="M450.207,141.241H26.483C11.855,141.241,0,129.386,0,114.759V26.483C0,11.855,11.855,0,26.483,0
			h423.724c14.627,0,26.483,11.855,26.483,26.483v88.276C476.69,129.386,464.834,141.241,450.207,141.241"/>
	</g>
	<path style="fill:#1F2F3D;" d="M370.759,229.517c39.415,0,75.026,16.181,100.643,42.214c3.275-4.405,5.288-9.816,5.288-15.731
		v-88.276c0-14.627-11.855-26.483-26.483-26.483H26.483C11.855,141.241,0,153.097,0,167.724V256
		c0,14.627,11.855,26.483,26.483,26.483h234.116C286.482,250.227,326.179,229.517,370.759,229.517"/>
	<path style="fill:#F0C419;" d="M132.414,388.414h-17.655c-4.882,0-8.828-3.946-8.828-8.828v-17.655
		c0-4.882,3.946-8.828,8.828-8.828h17.655c4.882,0,8.828,3.946,8.828,8.828v17.655C141.241,384.468,137.295,388.414,132.414,388.414
		"/>
	<path style="fill:#E64C3C;" d="M61.793,388.414H44.138c-4.882,0-8.828-3.946-8.828-8.828v-17.655c0-4.882,3.946-8.828,8.828-8.828
		h17.655c4.882,0,8.828,3.946,8.828,8.828v17.655C70.621,384.468,66.675,388.414,61.793,388.414"/>
	<path style="fill:#26B99A;" d="M203.034,247.172h-17.655c-4.882,0-8.828-3.946-8.828-8.828V220.69c0-4.882,3.946-8.828,8.828-8.828
		h17.655c4.882,0,8.828,3.946,8.828,8.828v17.655C211.862,243.226,207.916,247.172,203.034,247.172"/>
	<path style="fill:#F0C419;" d="M132.414,247.172h-17.655c-4.882,0-8.828-3.946-8.828-8.828V220.69c0-4.882,3.946-8.828,8.828-8.828
		h17.655c4.882,0,8.828,3.946,8.828,8.828v17.655C141.241,243.226,137.295,247.172,132.414,247.172"/>
	<path style="fill:#E64C3C;" d="M61.793,247.172H44.138c-4.882,0-8.828-3.946-8.828-8.828V220.69c0-4.882,3.946-8.828,8.828-8.828
		h17.655c4.882,0,8.828,3.946,8.828,8.828v17.655C70.621,243.226,66.675,247.172,61.793,247.172"/>
	<path style="fill:#26B99A;" d="M203.034,105.931h-17.655c-4.882,0-8.828-3.946-8.828-8.828V79.448c0-4.882,3.946-8.828,8.828-8.828
		h17.655c4.882,0,8.828,3.946,8.828,8.828v17.655C211.862,101.985,207.916,105.931,203.034,105.931"/>
	<path style="fill:#F0C419;" d="M132.414,105.931h-17.655c-4.882,0-8.828-3.946-8.828-8.828V79.448c0-4.882,3.946-8.828,8.828-8.828
		h17.655c4.882,0,8.828,3.946,8.828,8.828v17.655C141.241,101.985,137.295,105.931,132.414,105.931"/>
	<path style="fill:#E64C3C;" d="M61.793,105.931H44.138c-4.882,0-8.828-3.946-8.828-8.828V79.448c0-4.882,3.946-8.828,8.828-8.828
		h17.655c4.882,0,8.828,3.946,8.828,8.828v17.655C70.621,101.985,66.675,105.931,61.793,105.931"/>
	<path style="fill:#1F2F3D;" d="M432.552,79.448H273.655c-4.882,0-8.828-3.946-8.828-8.828c0-4.882,3.946-8.828,8.828-8.828h158.897
		c4.882,0,8.828,3.946,8.828,8.828C441.379,75.502,437.433,79.448,432.552,79.448"/>
	<path style="fill:#35495E;" d="M317.793,220.69h-44.138c-4.882,0-8.828-3.946-8.828-8.828c0-4.882,3.946-8.828,8.828-8.828h44.138
		c4.882,0,8.828,3.946,8.828,8.828C326.621,216.744,322.675,220.69,317.793,220.69"/>
	<path style="fill:#F0C419;" d="M512,370.759C512,448.768,448.768,512,370.759,512s-141.241-63.232-141.241-141.241
		s63.232-141.241,141.241-141.241S512,292.749,512,370.759"/>
	<path style="fill:#FFFFFF;" d="M423.724,344.276c-4.882,0-8.828-3.946-8.828-8.828v-22.952c0-21.416-19.8-38.841-44.138-38.841
		c-16.711,0-32.282,8.616-39.698,21.945c-2.375,4.255-7.724,5.817-12.005,3.425c-4.264-2.375-5.8-7.742-3.425-12.006
		c10.637-19.129,31.762-31.02,55.128-31.02c34.066,0,61.793,25.344,61.793,56.497v22.952
		C432.552,340.33,428.606,344.276,423.724,344.276"/>
	<path style="fill:#E64C3C;" d="M426.396,459.034H315.125c-13.153,0-23.817-10.664-23.817-23.808v-75.97
		c0-13.144,10.664-23.808,23.817-23.808h111.272c13.144,0,23.808,10.664,23.808,23.808v75.97
		C450.204,448.371,439.54,459.034,426.396,459.034"/>
	<path style="fill:#FFFFFF;" d="M370.759,406.069c-4.882,0-8.828-3.946-8.828-8.828v-17.655c0-4.882,3.946-8.828,8.828-8.828
		c4.882,0,8.828,3.946,8.828,8.828v17.655C379.586,402.123,375.64,406.069,370.759,406.069"/>
</g>
<g>
</g>
<g>
</g>
<g>
</g>
<g>
</g>
<g>
</g>
<g>
</g>
<g>
</g>
<g>
</g>
<g>
</g>
<g>
</g>
<g>
</g>
<g>
</g>
<g>
</g>
<g>
</g>
<g>
</g>
</svg>
