<?xml version="1.0" encoding="iso-8859-1"?>
<!-- Generator: Adobe Illustrator 19.0.0, SVG Export Plug-In . SVG Version: 6.00 Build 0)  -->
<svg version="1.1" id="Capa_1" xmlns="http://www.w3.org/2000/svg" xmlns:xlink="http://www.w3.org/1999/xlink" x="0px" y="0px"
	 viewBox="0 0 512 512" style="enable-background:new 0 0 512 512;" xml:space="preserve">
<g>
	<rect x="185.379" y="414.897" style="fill:#BDC3C7;" width="141.241" height="88.276"/>
	<path style="fill:#35495E;" d="M512,35.31v361.931H0L0,35.31c-0.003-9.366,3.717-18.349,10.339-24.971S25.945-0.003,35.31,0H476.69
		c9.366-0.003,18.349,3.717,24.971,10.339C508.283,16.962,512.003,25.945,512,35.31z"/>
	<path style="fill:#14A085;" d="M361.931,141.241v79.448c-9.739,0.028-17.627,7.916-17.655,17.655c0,2.178,0.42,4.336,1.236,6.356
		l-73.887,47.316c-3.015-5.85-9.043-9.529-15.625-9.534v-79.448c9.739-0.029,17.627-7.916,17.655-17.655
		c0.026-3.038-0.766-6.026-2.295-8.651l0.265-0.177l73.887-44.138l0.883-0.441C349.494,137.665,355.449,141.218,361.931,141.241z"/>
	<path style="fill:#46B29D;" d="M256,203.034v79.448c-6.582,0.005-12.61,3.684-15.625,9.534l-73.887-47.316
		c0.816-2.02,1.236-4.178,1.236-6.356c-0.028-9.739-7.916-17.627-17.655-17.655v-79.448c6.482-0.024,12.437-3.576,15.537-9.269
		l0.883,0.441l73.887,44.138l0.265,0.177c-1.529,2.625-2.322,5.613-2.295,8.651C238.373,195.118,246.261,203.006,256,203.034z"/>
	<g>
		<path style="fill:#ECF0F1;" d="M167.724,123.586c0,4.683-1.86,9.173-5.171,12.484c-3.311,3.311-7.802,5.171-12.484,5.171
			c-8.921,0.026-16.46-6.607-17.57-15.459c-1.11-8.852,4.558-17.141,13.21-19.318c8.652-2.177,17.568,2.442,20.779,10.766
			C167.304,119.25,167.724,121.408,167.724,123.586z"/>
		<path style="fill:#ECF0F1;" d="M167.724,238.345c0,2.178-0.42,4.336-1.236,6.356c-3.34,8.42-12.542,12.912-21.236,10.367
			c-8.693-2.546-14.019-11.292-12.29-20.184s9.944-15.005,18.958-14.108C160.934,221.674,167.782,229.287,167.724,238.345z"/>
		<path style="fill:#ECF0F1;" d="M273.655,300.138c0,9.751-7.904,17.655-17.655,17.655c-9.751,0-17.655-7.904-17.655-17.655
			c-0.019-2.835,0.679-5.629,2.03-8.121c3.011-5.854,9.042-9.533,15.625-9.533s12.613,3.679,15.625,9.533
			C272.976,294.509,273.675,297.303,273.655,300.138z"/>
		<path style="fill:#ECF0F1;" d="M273.655,70.621c0.02,2.835-0.679,5.629-2.03,8.121c-3.011,5.854-9.042,9.534-15.625,9.534
			s-12.614-3.68-15.625-9.534c-1.351-2.492-2.05-5.286-2.03-8.121c0-9.751,7.904-17.655,17.655-17.655
			C265.751,52.966,273.655,60.87,273.655,70.621z"/>
		<path style="fill:#ECF0F1;" d="M273.655,185.379c0,9.751-7.904,17.655-17.655,17.655c-9.751,0-17.655-7.904-17.655-17.655
			c-0.026-3.038,0.766-6.026,2.295-8.651c3.113-5.56,8.988-9.004,15.36-9.004s12.247,3.444,15.36,9.004
			C272.889,179.353,273.682,182.342,273.655,185.379z"/>
	</g>
	<path style="fill:#65DDB9;" d="M346.395,131.972l-0.883,0.441l-73.887,44.138l-0.265,0.177c-3.113-5.56-8.988-9.004-15.36-9.004
		s-12.247,3.444-15.36,9.004l-0.265-0.177l-73.887-44.138l-0.883-0.441c1.381-2.58,2.108-5.46,2.119-8.386
		c0-2.178-0.42-4.336-1.236-6.356l73.887-38.488c3.011,5.854,9.042,9.534,15.625,9.534s12.614-3.68,15.625-9.534l73.887,38.488
		c-0.816,2.02-1.235,4.178-1.236,6.356C344.286,126.513,345.014,129.392,346.395,131.972z"/>
	<path style="fill:#ECF0F1;" d="M379.586,123.586c0,8.085-5.492,15.137-13.33,17.118c-7.839,1.981-16.021-1.617-19.861-8.732
		c-1.381-2.58-2.108-5.46-2.119-8.386c0-2.178,0.42-4.336,1.236-6.356c3.05-7.933,11.327-12.559,19.682-11.001
		C373.548,107.788,379.601,115.087,379.586,123.586z"/>
	<path style="fill:#F29C1F;" d="M379.586,238.345c0.015,8.499-6.038,15.798-14.392,17.357s-16.632-3.068-19.682-11.001
		c-0.816-2.02-1.236-4.178-1.236-6.356c0-9.751,7.905-17.655,17.655-17.655S379.586,228.594,379.586,238.345z"/>
	<g>
		<path style="fill:#95A5A5;" d="M512,370.759v35.31c0.003,9.366-3.717,18.348-10.339,24.971
			c-6.623,6.622-15.605,10.342-24.971,10.339H35.31c-9.366,0.003-18.348-3.717-24.971-10.339C3.717,424.417-0.003,415.435,0,406.069
			l0-35.31H512z"/>
		<rect x="114.759" y="476.69" style="fill:#95A5A5;" width="282.483" height="35.31"/>
	</g>
</g>
<g>
</g>
<g>
</g>
<g>
</g>
<g>
</g>
<g>
</g>
<g>
</g>
<g>
</g>
<g>
</g>
<g>
</g>
<g>
</g>
<g>
</g>
<g>
</g>
<g>
</g>
<g>
</g>
<g>
</g>
</svg>
